<svg width="24" height="24" viewBox="0 0 24 24" fill="none" xmlns="http://www.w3.org/2000/svg">
<path d="M12 0C13.1016 0 14.1641 0.140625 15.1875 0.421875C16.2109 0.703125 17.1641 1.10938 18.0469 1.64062C18.9297 2.17188 19.7383 2.79688 20.4727 3.51562C21.207 4.23438 21.8359 5.04297 22.3594 5.94141C22.8828 6.83984 23.2852 7.79688 23.5664 8.8125C23.8477 9.82812 23.9922 10.8906 24 12C24 13.1016 23.8594 14.1641 23.5781 15.1875C23.2969 16.2109 22.8906 17.1641 22.3594 18.0469C21.8281 18.9297 21.2031 19.7383 20.4844 20.4727C19.7656 21.207 18.957 21.8359 18.0586 22.3594C17.1602 22.8828 16.2031 23.2852 15.1875 23.5664C14.1719 23.8477 13.1094 23.9922 12 24C10.8984 24 9.83594 23.8594 8.8125 23.5781C7.78906 23.2969 6.83594 22.8906 5.95312 22.3594C5.07031 21.8281 4.26172 21.2031 3.52734 20.4844C2.79297 19.7656 2.16406 18.957 1.64062 18.0586C1.11719 17.1602 0.714844 16.2031 0.433594 15.1875C0.152344 14.1719 0.0078125 13.1094 0 12C0 10.8984 0.140625 9.83594 0.421875 8.8125C0.703125 7.78906 1.10938 6.83594 1.64062 5.95312C2.17188 5.07031 2.79688 4.26172 3.51562 3.52734C4.23438 2.79297 5.04297 2.16406 5.94141 1.64062C6.83984 1.11719 7.79688 0.714844 8.8125 0.433594C9.82812 0.152344 10.8906 0.0078125 12 0ZM12 22.5C12.9688 22.5 13.8984 22.375 14.7891 22.125C15.6797 21.875 16.5156 21.5234 17.2969 21.0703C18.0781 20.6172 18.7852 20.0703 19.418 19.4297C20.0508 18.7891 20.5977 18.082 21.0586 17.3086C21.5195 16.5352 21.875 15.6992 22.125 14.8008C22.375 13.9023 22.5 12.9688 22.5 12C22.5 11.0312 22.375 10.1016 22.125 9.21094C21.875 8.32031 21.5234 7.48438 21.0703 6.70312C20.6172 5.92188 20.0703 5.21484 19.4297 4.58203C18.7891 3.94922 18.082 3.40234 17.3086 2.94141C16.5352 2.48047 15.6992 2.125 14.8008 1.875C13.9023 1.625 12.9688 1.5 12 1.5C11.0312 1.5 10.1016 1.625 9.21094 1.875C8.32031 2.125 7.48438 2.47656 6.70312 2.92969C5.92188 3.38281 5.21484 3.92969 4.58203 4.57031C3.94922 5.21094 3.40234 5.91797 2.94141 6.69141C2.48047 7.46484 2.125 8.30078 1.875 9.19922C1.625 10.0977 1.5 11.0312 1.5 12C1.5 12.9688 1.625 13.8984 1.875 14.7891C2.125 15.6797 2.47656 16.5156 2.92969 17.2969C3.38281 18.0781 3.92969 18.7852 4.57031 19.418C5.21094 20.0508 5.91797 20.5977 6.69141 21.0586C7.46484 21.5195 8.30078 21.875 9.19922 22.125C10.0977 22.375 11.0312 22.5 12 22.5ZM17.1914 7.86328L13.0664 12L17.1914 16.1367L16.1367 17.1914L12 13.0664L7.86328 17.1914L6.80859 16.1367L10.9336 12L6.80859 7.86328L7.86328 6.80859L12 10.9336L16.1367 6.80859L17.1914 7.86328Z" fill="white"/>
</svg>
