<svg width="20" height="20" viewBox="0 0 20 20" fill="none" xmlns="http://www.w3.org/2000/svg">
<path d="M0 2.85714C0 1.28125 1.12109 0 2.5 0H17.5C18.8789 0 20 1.28125 20 2.85714V17.1429C20 18.7188 18.8789 20 17.5 20H2.5C1.12109 20 0 18.7188 0 17.1429V2.85714ZM1.875 15V16.4286C1.875 16.8214 2.15625 17.1429 2.5 17.1429H3.75C4.09375 17.1429 4.375 16.8214 4.375 16.4286V15C4.375 14.6071 4.09375 14.2857 3.75 14.2857H2.5C2.15625 14.2857 1.875 14.6071 1.875 15ZM16.25 14.2857C15.9062 14.2857 15.625 14.6071 15.625 15V16.4286C15.625 16.8214 15.9062 17.1429 16.25 17.1429H17.5C17.8438 17.1429 18.125 16.8214 18.125 16.4286V15C18.125 14.6071 17.8438 14.2857 17.5 14.2857H16.25ZM1.875 9.28571V10.7143C1.875 11.1071 2.15625 11.4286 2.5 11.4286H3.75C4.09375 11.4286 4.375 11.1071 4.375 10.7143V9.28571C4.375 8.89286 4.09375 8.57143 3.75 8.57143H2.5C2.15625 8.57143 1.875 8.89286 1.875 9.28571ZM16.25 8.57143C15.9062 8.57143 15.625 8.89286 15.625 9.28571V10.7143C15.625 11.1071 15.9062 11.4286 16.25 11.4286H17.5C17.8438 11.4286 18.125 11.1071 18.125 10.7143V9.28571C18.125 8.89286 17.8438 8.57143 17.5 8.57143H16.25ZM1.875 3.57143V5C1.875 5.39286 2.15625 5.71429 2.5 5.71429H3.75C4.09375 5.71429 4.375 5.39286 4.375 5V3.57143C4.375 3.17857 4.09375 2.85714 3.75 2.85714H2.5C2.15625 2.85714 1.875 3.17857 1.875 3.57143ZM16.25 2.85714C15.9062 2.85714 15.625 3.17857 15.625 3.57143V5C15.625 5.39286 15.9062 5.71429 16.25 5.71429H17.5C17.8438 5.71429 18.125 5.39286 18.125 5V3.57143C18.125 3.17857 17.8438 2.85714 17.5 2.85714H16.25ZM6.25 4.28571V7.14286C6.25 7.93304 6.80859 8.57143 7.5 8.57143H12.5C13.1914 8.57143 13.75 7.93304 13.75 7.14286V4.28571C13.75 3.49554 13.1914 2.85714 12.5 2.85714H7.5C6.80859 2.85714 6.25 3.49554 6.25 4.28571ZM7.5 11.4286C6.80859 11.4286 6.25 12.067 6.25 12.8571V15.7143C6.25 16.5045 6.80859 17.1429 7.5 17.1429H12.5C13.1914 17.1429 13.75 16.5045 13.75 15.7143V12.8571C13.75 12.067 13.1914 11.4286 12.5 11.4286H7.5Z" fill="white"/>
</svg>
